<svg xmlns="http://www.w3.org/2000/svg" viewBox="0 0 512 512" width="512" height="512">
  <circle cx="256" cy="256" r="256" fill="#0F9D58"/>
  <path d="M358 224 H268 V276 H318 C308 318 283 342 246 342 C194 342 152 300 152 248 C152 196 194 154 246 154 C270 154 292 163 308 178 L350 136 C326 114 288 100 246 100 C163 100 96 168 96 252 C96 336 163 404 246 404 C329 404 396 336 396 252 C396 240 395 232 392 224 Z" fill="white"/>
  <circle cx="380" cy="148" r="40" fill="#FCD116"/>
  <path d="M380 200 L350 148 L410 148 Z" fill="#FCD116"/>
</svg>
