<svg xmlns="http://www.w3.org/2000/svg" viewBox="0 0 192 192" width="192" height="192">
  <circle cx="96" cy="96" r="96" fill="#0F9D58"/>
  <path d="M134 84 H100 V103 H119 C115 119 106 128 92 128 C73 128 58 113 58 94 C58 75 73 60 92 60 C101 60 110 64 116 70 L131 55 C122 46 108 40 92 40 C61 40 36 65 36 96 C36 127 61 152 92 152 C123 152 148 127 148 96 C148 92 147 88 146 84 Z" fill="white"/>
  <circle cx="142" cy="58" r="15" fill="#FCD116"/>
  <path d="M142 77 L132 58 L152 58 Z" fill="#FCD116"/>
</svg>
